<svg width="500" height="500" viewBox="0 0 500 500" fill="none" xmlns="http://www.w3.org/2000/svg">
<g clip-path="url(#clip0_845_1412)">
<circle cx="250" cy="250" r="230" fill="white" stroke="#22828C" stroke-width="40"/>
<path fill-rule="evenodd" clip-rule="evenodd" d="M250.205 155.577C215.866 123.425 162.099 124.159 128.654 157.792C95.2188 191.415 94.466 245.464 126.396 280.007L126.199 280.205L249.888 404.59L376.094 277.675L376.172 277.585C405.892 242.977 404.419 190.639 371.756 157.792C338.309 124.158 284.543 123.419 250.205 155.577ZM186.232 280.167L186.388 280.01L158.67 252.137C141.061 234.429 141.061 205.725 158.67 188.017C176.286 170.302 204.855 170.302 222.472 188.017L250.205 215.906L277.938 188.017C295.555 170.302 324.123 170.302 341.74 188.017C358.254 204.623 359.282 230.933 344.824 248.712L249.888 344.18L186.232 280.167Z" fill="#B7163D"/>
</g>
<defs>
<clipPath id="clip0_845_1412">
<rect width="500" height="500" fill="white"/>
</clipPath>
</defs>
</svg>
