<svg width="1286" height="300" viewBox="0 0 1286 300" fill="none" xmlns="http://www.w3.org/2000/svg">
<g clip-path="url(#clip0_845_1409)">
<path d="M105.227 7.48106V34.4523H69.1826V145.684H36.0447V34.4523H0V7.48106H105.227Z" fill="#2C2525"/>
<path d="M98.1267 90.5603C98.1267 79.2731 100.194 69.3639 104.328 60.8329C108.591 52.3019 114.34 45.7395 121.575 41.1459C128.81 36.5522 136.884 34.2554 145.799 34.2554C153.421 34.2554 160.075 35.8304 165.759 38.9803C171.573 42.1302 176.03 46.2645 179.13 51.3831V35.8304H212.268V145.684H179.13V130.131C175.901 135.25 171.379 139.384 165.565 142.534C159.881 145.684 153.227 147.259 145.605 147.259C136.82 147.259 128.81 144.962 121.575 140.368C114.34 135.644 108.591 129.016 104.328 120.485C100.194 111.822 98.1267 101.848 98.1267 90.5603ZM179.13 90.7572C179.13 82.3574 176.805 75.7294 172.154 70.8733C167.632 66.0172 162.077 63.5891 155.488 63.5891C148.899 63.5891 143.279 66.0172 138.629 70.8733C134.107 75.5982 131.846 82.1605 131.846 90.5603C131.846 98.9601 134.107 105.654 138.629 110.641C143.279 115.497 148.899 117.925 155.488 117.925C162.077 117.925 167.632 115.497 172.154 110.641C176.805 105.785 179.13 99.157 179.13 90.7572Z" fill="#2C2525"/>
<path d="M364.53 34.6492C377.966 34.6492 388.625 38.7834 396.505 47.052C404.515 55.3205 408.52 66.8046 408.52 81.5043V145.684H375.576V86.0323C375.576 78.945 373.703 73.4982 369.956 69.6921C366.339 65.7547 361.3 63.786 354.841 63.786C348.381 63.786 343.278 65.7547 339.532 69.6921C335.914 73.4982 334.105 78.945 334.105 86.0323V145.684H301.161V86.0323C301.161 78.945 299.288 73.4982 295.541 69.6921C291.924 65.7547 286.886 63.786 280.426 63.786C273.966 63.786 268.863 65.7547 265.117 69.6921C261.499 73.4982 259.691 78.945 259.691 86.0323V145.684H226.553V35.8304H259.691V49.6113C263.05 45.0177 267.442 41.4084 272.868 38.7834C278.294 36.0273 284.431 34.6492 291.278 34.6492C299.417 34.6492 306.652 36.421 312.982 39.9647C319.442 43.5083 324.481 48.5613 328.098 55.1237C331.845 49.0863 336.948 44.1646 343.407 40.3584C349.867 36.5522 356.908 34.6492 364.53 34.6492Z" fill="#2C2525"/>
<path d="M577.232 35.8304L547.97 145.684H511.343L494.29 74.417L476.655 145.684H440.223L410.767 35.8304H443.905L459.214 114.382L477.43 35.8304H512.506L530.916 113.988L546.032 35.8304H577.232Z" fill="#2C2525"/>
<path d="M738.826 54.1393C742.702 48.102 746.686 43.4124 752.5 40C758.314 36.4563 762.894 35.8304 770 35.8304V63.786H756C747.732 63.786 743 67.5 741 73.5C739 79.5 738.826 85.6386 738.826 94.6946V145.684H705.688V35.8304H738.826V54.1393Z" fill="#2C2525"/>
<path d="M839.157 117.138V145.684H822.297C810.283 145.684 800.916 142.731 794.198 136.825C787.48 130.787 784.121 121.01 784.121 107.491V63.786H770V35.8304H784.121V9.05603H817.259V35.8304H838.963V63.786H817.259V107.885C817.259 111.166 818.034 113.529 819.584 114.972C821.135 116.416 823.719 117.138 827.336 117.138H839.157Z" fill="#2C2525"/>
<path d="M914.395 34.6492C926.798 34.6492 936.746 38.8491 944.239 47.2489C951.732 55.5174 955.479 66.9359 955.479 81.5043V145.684H922.535V86.0323C922.535 78.6825 920.661 72.9732 916.915 68.9046C913.168 64.8359 908.13 62.8016 901.799 62.8016C895.469 62.8016 890.43 64.8359 886.684 68.9046C882.937 72.9732 881.064 78.6825 881.064 86.0323V145.684H847.926V0H881.064V50.5957C884.423 45.7395 889.009 41.8677 894.823 38.9803C900.637 36.0929 907.161 34.6492 914.395 34.6492Z" fill="#2C2525"/>
<path fill-rule="evenodd" clip-rule="evenodd" d="M590.069 46.28C603.617 32.7335 625.396 32.4376 639.305 45.3879C653.214 32.4355 674.993 32.7329 688.541 46.28C701.772 59.5099 702.368 80.5908 690.33 94.5299L690.298 94.5662L639.177 145.685L589.075 95.5853L589.154 95.5053C576.221 81.5923 576.526 59.8226 590.069 46.28ZM617.319 92.8L617.266 92.8523L639.022 114.19L671.469 82.3673C676.41 76.4411 676.058 67.6711 670.415 62.1358C664.394 56.2305 654.63 56.2305 648.609 62.1358L639.13 71.432L629.652 62.1358C623.631 56.2305 613.867 56.2305 607.846 62.1358C601.828 68.0383 601.828 77.6062 607.846 83.5088L617.319 92.8Z" fill="#22828C"/>
<path fill-rule="evenodd" clip-rule="evenodd" d="M1138.51 25.3943C1104.17 -6.75797 1050.4 -6.02344 1016.96 27.6093C983.523 61.2323 982.77 115.281 1014.7 149.824L1014.5 150.023L1138.19 274.407L1264.4 147.492L1264.48 147.402C1294.2 112.795 1292.72 60.4561 1260.06 27.6093C1226.61 -6.02502 1172.85 -6.76336 1138.51 25.3943ZM1074.54 149.984L1074.69 149.828L1046.97 121.954C1029.36 104.246 1029.36 75.5424 1046.97 57.8347C1064.59 40.119 1093.16 40.119 1110.78 57.8347L1138.51 85.7235L1166.24 57.8347C1183.86 40.119 1212.43 40.119 1230.04 57.8347C1246.56 74.4406 1247.59 100.751 1233.13 118.529L1138.19 213.998L1074.54 149.984Z" fill="#B7163D"/>
<path d="M4.1665 240.053C4.1665 233.36 5.65222 227.355 8.62365 222.04C11.5951 216.659 15.6323 212.459 20.7355 209.44C25.9032 206.421 31.6199 204.912 37.8858 204.912C45.2497 204.912 51.6771 206.717 57.1678 210.326C62.6584 213.935 66.6634 219.054 69.1827 225.682H58.6212C56.7479 221.548 54.0348 218.365 50.482 216.134C46.9938 213.902 42.7951 212.787 37.8858 212.787C33.1702 212.787 28.9392 213.902 25.1926 216.134C21.446 218.365 18.5069 221.548 16.3752 225.682C14.2435 229.75 13.1777 234.541 13.1777 240.053C13.1777 245.5 14.2435 250.291 16.3752 254.425C18.5069 258.494 21.446 261.643 25.1926 263.875C28.9392 266.106 33.1702 267.221 37.8858 267.221C42.7951 267.221 46.9938 266.139 50.482 263.973C54.0348 261.742 56.7479 258.559 58.6212 254.425H69.1827C66.6634 260.987 62.6584 266.073 57.1678 269.682C51.6771 273.226 45.2497 274.998 37.8858 274.998C31.6199 274.998 25.9032 273.521 20.7355 270.568C15.6323 267.55 11.5951 263.382 8.62365 258.067C5.65222 252.751 4.1665 246.747 4.1665 240.053Z" fill="#2C2525"/>
<path d="M102.85 219.48C106.855 219.48 110.472 220.366 113.702 222.138C116.932 223.844 119.451 226.436 121.26 229.915C123.133 233.393 124.07 237.625 124.07 242.613V274.407H115.349V243.892C115.349 238.511 114.025 234.41 111.376 231.588C108.728 228.7 105.111 227.257 100.524 227.257C95.8733 227.257 92.159 228.733 89.3814 231.686C86.6683 234.639 85.3118 238.938 85.3118 244.581V274.407H76.4944V201.565H85.3118V228.143C87.0559 225.386 89.446 223.254 92.482 221.744C95.5826 220.235 99.0385 219.48 102.85 219.48Z" fill="#2C2525"/>
<path d="M141.476 229.225C143.027 226.141 145.223 223.746 148.065 222.04C150.972 220.333 154.493 219.48 158.627 219.48V228.733H156.301C146.418 228.733 141.476 234.18 141.476 245.074V274.407H132.659V220.465H141.476V229.225Z" fill="#2C2525"/>
<path d="M167.546 211.704C165.866 211.704 164.445 211.113 163.282 209.932C162.12 208.751 161.538 207.307 161.538 205.601C161.538 203.895 162.12 202.451 163.282 201.27C164.445 200.089 165.866 199.498 167.546 199.498C169.161 199.498 170.517 200.089 171.615 201.27C172.778 202.451 173.359 203.895 173.359 205.601C173.359 207.307 172.778 208.751 171.615 209.932C170.517 211.113 169.161 211.704 167.546 211.704ZM171.809 220.465V274.407H162.992V220.465H171.809Z" fill="#2C2525"/>
<path d="M199.821 275.293C195.751 275.293 192.101 274.604 188.871 273.226C185.642 271.782 183.09 269.814 181.217 267.32C179.344 264.761 178.31 261.84 178.116 258.559H187.224C187.483 261.25 188.71 263.448 190.906 265.154C193.167 266.86 196.106 267.714 199.724 267.714C203.083 267.714 205.731 266.959 207.669 265.45C209.607 263.94 210.576 262.037 210.576 259.74C210.576 257.378 209.542 255.639 207.475 254.523C205.408 253.342 202.211 252.194 197.883 251.078C193.942 250.028 190.712 248.978 188.193 247.928C185.739 246.813 183.607 245.205 181.798 243.105C180.054 240.939 179.182 238.117 179.182 234.639C179.182 231.883 179.989 229.357 181.604 227.06C183.219 224.763 185.512 222.958 188.484 221.646C191.455 220.268 194.847 219.579 198.658 219.579C204.536 219.579 209.284 221.088 212.901 224.107C216.519 227.126 218.457 231.26 218.715 236.51H209.898C209.704 233.688 208.573 231.424 206.506 229.718C204.504 228.011 201.791 227.158 198.367 227.158C195.202 227.158 192.683 227.847 190.809 229.225C188.936 230.604 187.999 232.408 187.999 234.639C187.999 236.411 188.549 237.888 189.647 239.069C190.809 240.185 192.23 241.103 193.91 241.825C195.654 242.481 198.044 243.236 201.08 244.089C204.891 245.139 207.992 246.189 210.382 247.239C212.772 248.223 214.807 249.733 216.486 251.767C218.23 253.801 219.135 256.459 219.199 259.74C219.199 262.693 218.392 265.351 216.777 267.714C215.162 270.076 212.869 271.946 209.898 273.324C206.991 274.637 203.632 275.293 199.821 275.293Z" fill="#2C2525"/>
<path d="M236.588 227.847V259.642C236.588 262.267 237.137 264.137 238.235 265.253C239.334 266.303 241.239 266.828 243.952 266.828H250.444V274.407H242.499C237.589 274.407 233.907 273.259 231.453 270.962C228.998 268.665 227.771 264.892 227.771 259.642V227.847H220.891V220.465H227.771V206.881H236.588V220.465H250.444V227.847H236.588Z" fill="#2C2525"/>
<path d="M252.019 247.239C252.019 241.727 253.118 236.903 255.314 232.769C257.51 228.569 260.514 225.321 264.325 223.024C268.201 220.727 272.496 219.579 277.212 219.579C281.863 219.579 285.9 220.596 289.324 222.63C292.747 224.665 295.299 227.224 296.978 230.308V220.465H305.893V274.407H296.978V264.367C295.234 267.517 292.618 270.142 289.13 272.242C285.706 274.276 281.701 275.293 277.115 275.293C272.4 275.293 268.136 274.112 264.325 271.749C260.514 269.387 257.51 266.073 255.314 261.807C253.118 257.542 252.019 252.686 252.019 247.239ZM296.978 247.338C296.978 243.269 296.171 239.725 294.556 236.707C292.941 233.688 290.745 231.391 287.967 229.816C285.254 228.175 282.25 227.355 278.956 227.355C275.662 227.355 272.658 228.143 269.945 229.718C267.232 231.293 265.068 233.589 263.453 236.608C261.838 239.627 261.031 243.17 261.031 247.239C261.031 251.373 261.838 254.983 263.453 258.067C265.068 261.086 267.232 263.415 269.945 265.056C272.658 266.631 275.662 267.418 278.956 267.418C282.25 267.418 285.254 266.631 287.967 265.056C290.745 263.415 292.941 261.086 294.556 258.067C296.171 254.983 296.978 251.406 296.978 247.338Z" fill="#2C2525"/>
<path d="M311.685 247.239C311.685 241.727 312.783 236.903 314.98 232.769C317.176 228.569 320.18 225.321 323.991 223.024C327.867 220.727 332.194 219.579 336.975 219.579C341.109 219.579 344.952 220.563 348.505 222.532C352.058 224.435 354.771 226.961 356.644 230.111V201.565H365.558V274.407H356.644V264.268C354.9 267.484 352.316 270.142 348.893 272.242C345.469 274.276 341.464 275.293 336.878 275.293C332.162 275.293 327.867 274.112 323.991 271.749C320.18 269.387 317.176 266.073 314.98 261.807C312.783 257.542 311.685 252.686 311.685 247.239ZM356.644 247.338C356.644 243.269 355.837 239.725 354.222 236.707C352.607 233.688 350.411 231.391 347.633 229.816C344.92 228.175 341.916 227.355 338.622 227.355C335.327 227.355 332.324 228.143 329.611 229.718C326.898 231.293 324.734 233.589 323.119 236.608C321.504 239.627 320.696 243.17 320.696 247.239C320.696 251.373 321.504 254.983 323.119 258.067C324.734 261.086 326.898 263.415 329.611 265.056C332.324 266.631 335.327 267.418 338.622 267.418C341.916 267.418 344.92 266.631 347.633 265.056C350.411 263.415 352.607 261.086 354.222 258.067C355.837 254.983 356.644 251.406 356.644 247.338Z" fill="#2C2525"/>
<path d="M423.093 245.369C423.093 247.075 422.996 248.88 422.802 250.783H380.362C380.685 256.098 382.461 260.265 385.691 263.284C388.986 266.237 392.958 267.714 397.609 267.714C401.421 267.714 404.586 266.828 407.105 265.056C409.689 263.218 411.498 260.79 412.531 257.772H422.027C420.606 262.956 417.763 267.189 413.5 270.47C409.237 273.685 403.94 275.293 397.609 275.293C392.571 275.293 388.049 274.145 384.044 271.848C380.104 269.551 377.003 266.303 374.742 262.103C372.481 257.837 371.351 252.916 371.351 247.338C371.351 241.76 372.449 236.871 374.645 232.671C376.842 228.471 379.91 225.255 383.85 223.024C387.855 220.727 392.442 219.579 397.609 219.579C402.648 219.579 407.105 220.694 410.981 222.926C414.857 225.157 417.828 228.241 419.895 232.179C422.027 236.05 423.093 240.447 423.093 245.369ZM413.984 243.499C413.984 240.086 413.242 237.166 411.756 234.738C410.27 232.244 408.235 230.374 405.652 229.127C403.132 227.815 400.322 227.158 397.222 227.158C392.765 227.158 388.953 228.602 385.788 231.489C382.688 234.377 380.911 238.38 380.459 243.499H413.984Z" fill="#2C2525"/>
<path d="M437.735 201.565V274.407H428.918V201.565H437.735Z" fill="#2C2525"/>
<path d="M455.766 230.407C457.511 227.322 460.094 224.763 463.518 222.729C467.006 220.629 471.043 219.579 475.63 219.579C480.345 219.579 484.609 220.727 488.42 223.024C492.296 225.321 495.332 228.569 497.528 232.769C499.724 236.903 500.822 241.727 500.822 247.239C500.822 252.686 499.724 257.542 497.528 261.807C495.332 266.073 492.296 269.387 488.42 271.749C484.609 274.112 480.345 275.293 475.63 275.293C471.108 275.293 467.103 274.276 463.615 272.242C460.191 270.142 457.575 267.55 455.766 264.465V300H446.949V220.465H455.766V230.407ZM491.811 247.239C491.811 243.17 491.004 239.627 489.389 236.608C487.774 233.589 485.578 231.293 482.8 229.718C480.087 228.143 477.083 227.355 473.789 227.355C470.559 227.355 467.555 228.175 464.778 229.816C462.065 231.391 459.868 233.721 458.189 236.805C456.574 239.824 455.766 243.334 455.766 247.338C455.766 251.406 456.574 254.983 458.189 258.067C459.868 261.086 462.065 263.415 464.778 265.056C467.555 266.631 470.559 267.418 473.789 267.418C477.083 267.418 480.087 266.631 482.8 265.056C485.578 263.415 487.774 261.086 489.389 258.067C491.004 254.983 491.811 251.373 491.811 247.239Z" fill="#2C2525"/>
<path d="M532.97 219.48C536.975 219.48 540.592 220.366 543.822 222.138C547.052 223.844 549.571 226.436 551.38 229.915C553.253 233.393 554.19 237.625 554.19 242.613V274.407H545.469V243.892C545.469 238.511 544.145 234.41 541.497 231.588C538.848 228.7 535.231 227.257 530.645 227.257C525.994 227.257 522.279 228.733 519.502 231.686C516.789 234.639 515.432 238.938 515.432 244.581V274.407H506.615V201.565H515.432V228.143C517.176 225.386 519.566 223.254 522.602 221.744C525.703 220.235 529.159 219.48 532.97 219.48Z" fill="#2C2525"/>
<path d="M567.333 211.704C565.654 211.704 564.233 211.113 563.07 209.932C561.907 208.751 561.326 207.307 561.326 205.601C561.326 203.895 561.907 202.451 563.07 201.27C564.233 200.089 565.654 199.498 567.333 199.498C568.948 199.498 570.305 200.089 571.403 201.27C572.566 202.451 573.147 203.895 573.147 205.601C573.147 207.307 572.566 208.751 571.403 209.932C570.305 211.113 568.948 211.704 567.333 211.704ZM571.597 220.465V274.407H562.779V220.465H571.597Z" fill="#2C2525"/>
<path d="M577.516 247.239C577.516 241.727 578.615 236.903 580.811 232.769C583.007 228.569 586.011 225.321 589.822 223.024C593.698 220.727 597.994 219.579 602.709 219.579C607.36 219.579 611.397 220.596 614.821 222.63C618.244 224.665 620.796 227.224 622.476 230.308V220.465H631.39V274.407H622.476V264.367C620.731 267.517 618.115 270.142 614.627 272.242C611.203 274.276 607.199 275.293 602.612 275.293C597.897 275.293 593.633 274.112 589.822 271.749C586.011 269.387 583.007 266.073 580.811 261.807C578.615 257.542 577.516 252.686 577.516 247.239ZM622.476 247.338C622.476 243.269 621.668 239.725 620.053 236.707C618.438 233.688 616.242 231.391 613.464 229.816C610.751 228.175 607.748 227.355 604.453 227.355C601.159 227.355 598.155 228.143 595.442 229.718C592.729 231.293 590.565 233.589 588.95 236.608C587.335 239.627 586.528 243.17 586.528 247.239C586.528 251.373 587.335 254.983 588.95 258.067C590.565 261.086 592.729 263.415 595.442 265.056C598.155 266.631 601.159 267.418 604.453 267.418C607.748 267.418 610.751 266.631 613.464 265.056C616.242 263.415 618.438 261.086 620.053 258.067C621.668 254.983 622.476 251.406 622.476 247.338Z" fill="#2C2525"/>
<path d="M666.347 219.48C672.807 219.48 678.039 221.482 682.044 225.485C686.049 229.422 688.052 235.132 688.052 242.613V274.407H679.331V243.892C679.331 238.511 678.007 234.41 675.359 231.588C672.71 228.7 669.093 227.257 664.506 227.257C659.856 227.257 656.141 228.733 653.364 231.686C650.651 234.639 649.294 238.938 649.294 244.581V274.407H640.477V220.465H649.294V228.143C651.038 225.386 653.396 223.254 656.367 221.744C659.403 220.235 662.73 219.48 666.347 219.48Z" fill="#2C2525"/>
<path d="M707.098 239.758C707.098 232.933 708.551 226.863 711.458 221.548C714.365 216.166 718.402 211.999 723.57 209.046C728.802 206.028 734.713 204.518 741.301 204.518C749.376 204.518 756.288 206.684 762.037 211.015C767.786 215.346 771.629 221.252 773.567 228.733H755.351C753.995 225.846 752.057 223.647 749.537 222.138C747.083 220.629 744.273 219.874 741.108 219.874C736.005 219.874 731.87 221.679 728.705 225.288C725.54 228.897 723.957 233.721 723.957 239.758C723.957 245.795 725.54 250.619 728.705 254.228C731.87 257.837 736.005 259.642 741.108 259.642C744.273 259.642 747.083 258.887 749.537 257.378C752.057 255.869 753.995 253.67 755.351 250.783H773.567C771.629 258.264 767.786 264.17 762.037 268.501C756.288 272.767 749.376 274.899 741.301 274.899C734.713 274.899 728.802 273.423 723.57 270.47C718.402 267.451 714.365 263.284 711.458 257.969C708.551 252.653 707.098 246.583 707.098 239.758Z" fill="#2C2525"/>
<path d="M811.135 218.89C817.336 218.89 822.31 220.99 826.057 225.19C829.803 229.324 831.677 235.033 831.677 242.317V274.407H815.205V244.581C815.205 240.906 814.268 238.052 812.395 236.017C810.521 233.983 808.002 232.966 804.837 232.966C801.672 232.966 799.152 233.983 797.279 236.017C795.406 238.052 794.469 240.906 794.469 244.581V274.407H777.9V201.565H794.469V226.863C796.149 224.435 798.442 222.499 801.349 221.055C804.255 219.612 807.518 218.89 811.135 218.89Z" fill="#2C2525"/>
<path d="M890.766 219.48V274.407H874.197V266.926C872.517 269.354 870.224 271.323 867.317 272.832C864.475 274.276 861.31 274.998 857.821 274.998C853.687 274.998 850.038 274.079 846.872 272.242C843.707 270.339 841.253 267.615 839.508 264.072C837.764 260.528 836.892 256.361 836.892 251.57V219.48H853.364V249.306C853.364 252.981 854.301 255.836 856.174 257.87C858.048 259.904 860.567 260.922 863.732 260.922C866.962 260.922 869.513 259.904 871.387 257.87C873.26 255.836 874.197 252.981 874.197 249.306V219.48H890.766Z" fill="#2C2525"/>
<path d="M913.422 228.635C915.36 225.616 917.782 223.254 920.689 221.548C923.596 219.776 926.826 218.89 930.379 218.89V236.707H925.825C921.69 236.707 918.59 237.625 916.523 239.463C914.456 241.235 913.422 244.384 913.422 248.912V274.407H896.853V219.48H913.422V228.635Z" fill="#2C2525"/>
<path d="M929.19 246.944C929.19 241.235 930.321 236.247 932.582 231.982C934.907 227.716 938.105 224.435 942.174 222.138C946.308 219.841 951.024 218.693 956.321 218.693C963.103 218.693 968.755 220.498 973.277 224.107C977.863 227.716 980.867 232.802 982.288 239.364H964.654C963.168 235.164 960.293 233.064 956.03 233.064C952.994 233.064 950.572 234.278 948.763 236.707C946.954 239.069 946.05 242.481 946.05 246.944C946.05 251.406 946.954 254.851 948.763 257.279C950.572 259.642 952.994 260.823 956.03 260.823C960.293 260.823 963.168 258.723 964.654 254.523H982.288C980.867 260.954 977.863 266.007 973.277 269.682C968.691 273.357 963.039 275.195 956.321 275.195C951.024 275.195 946.308 274.046 942.174 271.749C938.105 269.453 934.907 266.171 932.582 261.906C930.321 257.64 929.19 252.653 929.19 246.944Z" fill="#2C2525"/>
<path d="M1018.57 218.89C1024.77 218.89 1029.75 220.99 1033.49 225.19C1037.24 229.324 1039.11 235.033 1039.11 242.317V274.407H1022.64V244.581C1022.64 240.906 1021.71 238.052 1019.83 236.017C1017.96 233.983 1015.44 232.966 1012.27 232.966C1009.11 232.966 1006.59 233.983 1004.72 236.017C1002.84 238.052 1001.91 240.906 1001.91 244.581V274.407H985.337V201.565H1001.91V226.863C1003.59 224.435 1005.88 222.499 1008.79 221.055C1011.69 219.612 1014.95 218.89 1018.57 218.89Z" fill="#2C2525"/>
</g>
<defs>
<clipPath id="clip0_845_1409">
<rect width="1286" height="300" fill="white"/>
</clipPath>
</defs>
</svg>
